<?xml version="1.0" encoding="UTF-8" standalone="no"?>
<!DOCTYPE svg PUBLIC "-//W3C//DTD SVG 1.1//EN"
 "http://www.w3.org/Graphics/SVG/1.1/DTD/svg11.dtd">
<!-- Generated by graphviz version 2.38.0 (20140413.2041)
 -->
<!-- Title: o2::quality_control::core::TaskConfig Pages: 1 -->
<svg width="369pt" height="237pt"
 viewBox="0.00 0.00 369.00 237.00" xmlns="http://www.w3.org/2000/svg" xmlns:xlink="http://www.w3.org/1999/xlink">
<g id="graph0" class="graph" transform="scale(1 1) rotate(0) translate(4 233)">
<title>o2::quality_control::core::TaskConfig</title>
<!-- Node1 -->
<g id="node1" class="node"><title>Node1</title>
<polygon fill="#bfbfbf" stroke="black" points="119,-0.5 119,-68.5 217,-68.5 217,-0.5 119,-0.5"/>
<text text-anchor="start" x="127" y="-56.5" font-family="Helvetica,sans-Serif" font-size="10.00">o2::quality_control</text>
<text text-anchor="middle" x="168" y="-45.5" font-family="Helvetica,sans-Serif" font-size="10.00">::core::TaskConfig</text>
<polyline fill="none" stroke="black" points="119,-38.5 217,-38.5 "/>
<text text-anchor="middle" x="168" y="-26.5" font-family="Helvetica,sans-Serif" font-size="10.00"> </text>
<polyline fill="none" stroke="black" points="119,-19.5 217,-19.5 "/>
<text text-anchor="middle" x="168" y="-7.5" font-family="Helvetica,sans-Serif" font-size="10.00"> </text>
</g>
<!-- Node2 -->
<g id="node2" class="node"><title>Node2</title>
<polygon fill="none" stroke="#bfbfbf" points="0,-160.5 0,-228.5 106,-228.5 106,-160.5 0,-160.5"/>
<text text-anchor="start" x="8" y="-216.5" font-family="Helvetica,sans-Serif" font-size="10.00">unordered_map&lt; std</text>
<text text-anchor="middle" x="53" y="-205.5" font-family="Helvetica,sans-Serif" font-size="10.00">::string, std::string &gt;</text>
<polyline fill="none" stroke="#bfbfbf" points="0,-198.5 106,-198.5 "/>
<text text-anchor="middle" x="53" y="-186.5" font-family="Helvetica,sans-Serif" font-size="10.00"> </text>
<polyline fill="none" stroke="#bfbfbf" points="0,-179.5 106,-179.5 "/>
<text text-anchor="middle" x="53" y="-167.5" font-family="Helvetica,sans-Serif" font-size="10.00"> </text>
</g>
<!-- Node2&#45;&gt;Node1 -->
<g id="edge1" class="edge"><title>Node2&#45;&gt;Node1</title>
<path fill="none" stroke="#404040" d="M51.6739,-160.34C52.3885,-137.715 56.6729,-108.133 72,-87 81.1124,-74.4357 94.2473,-64.6346 107.89,-57.1162"/>
<polygon fill="none" stroke="#404040" points="108.162,-56.9788 111.713,-50.7027 118.872,-51.5668 115.321,-57.8429 108.162,-56.9788"/>
<text text-anchor="middle" x="118" y="-112" font-family="Helvetica,sans-Serif" font-size="10.00"> +customParameters</text>
</g>
<!-- Node3 -->
<g id="node3" class="node"><title>Node3</title>
<polygon fill="none" stroke="#bfbfbf" points="153.5,-166 153.5,-223 182.5,-223 182.5,-166 153.5,-166"/>
<text text-anchor="middle" x="168" y="-211" font-family="Helvetica,sans-Serif" font-size="10.00">int</text>
<polyline fill="none" stroke="#bfbfbf" points="153.5,-204 182.5,-204 "/>
<text text-anchor="middle" x="168" y="-192" font-family="Helvetica,sans-Serif" font-size="10.00"> </text>
<polyline fill="none" stroke="#bfbfbf" points="153.5,-185 182.5,-185 "/>
<text text-anchor="middle" x="168" y="-173" font-family="Helvetica,sans-Serif" font-size="10.00"> </text>
</g>
<!-- Node3&#45;&gt;Node1 -->
<g id="edge2" class="edge"><title>Node3&#45;&gt;Node1</title>
<path fill="none" stroke="#404040" d="M168,-165.979C168,-142.517 168,-108.326 168,-80.8301"/>
<polygon fill="none" stroke="#404040" points="168,-80.7303 164,-74.7304 168,-68.7303 172,-74.7303 168,-80.7303"/>
<text text-anchor="middle" x="220.5" y="-117.5" font-family="Helvetica,sans-Serif" font-size="10.00"> +maxNumberCycles</text>
<text text-anchor="middle" x="220.5" y="-106.5" font-family="Helvetica,sans-Serif" font-size="10.00">+cycleDurationSeconds</text>
</g>
<!-- Node4 -->
<g id="node4" class="node"><title>Node4</title>
<polygon fill="none" stroke="#bfbfbf" points="275.5,-166 275.5,-223 316.5,-223 316.5,-166 275.5,-166"/>
<text text-anchor="middle" x="296" y="-211" font-family="Helvetica,sans-Serif" font-size="10.00">string</text>
<polyline fill="none" stroke="#bfbfbf" points="275.5,-204 316.5,-204 "/>
<text text-anchor="middle" x="296" y="-192" font-family="Helvetica,sans-Serif" font-size="10.00"> </text>
<polyline fill="none" stroke="#bfbfbf" points="275.5,-185 316.5,-185 "/>
<text text-anchor="middle" x="296" y="-173" font-family="Helvetica,sans-Serif" font-size="10.00"> </text>
</g>
<!-- Node4&#45;&gt;Node1 -->
<g id="edge3" class="edge"><title>Node4&#45;&gt;Node1</title>
<path fill="none" stroke="#404040" d="M296.767,-165.805C296.013,-142.512 291.504,-109.502 274,-87 262.407,-72.0969 245.397,-61.246 228.383,-53.4625"/>
<polygon fill="none" stroke="#404040" points="228.318,-53.4352 221.236,-54.7937 217.258,-48.7789 224.34,-47.4205 228.318,-53.4352"/>
<text text-anchor="middle" x="327.5" y="-134" font-family="Helvetica,sans-Serif" font-size="10.00"> +moduleName</text>
<text text-anchor="middle" x="327.5" y="-123" font-family="Helvetica,sans-Serif" font-size="10.00">+consulUrl</text>
<text text-anchor="middle" x="327.5" y="-112" font-family="Helvetica,sans-Serif" font-size="10.00">+conditionUrl</text>
<text text-anchor="middle" x="327.5" y="-101" font-family="Helvetica,sans-Serif" font-size="10.00">+taskName</text>
<text text-anchor="middle" x="327.5" y="-90" font-family="Helvetica,sans-Serif" font-size="10.00">+className</text>
</g>
</g>
</svg>
