<?xml version="1.0" encoding="UTF-8" standalone="no"?>
<!DOCTYPE svg PUBLIC "-//W3C//DTD SVG 1.1//EN"
 "http://www.w3.org/Graphics/SVG/1.1/DTD/svg11.dtd">
<!-- Generated by graphviz version 2.38.0 (20140413.2041)
 -->
<!-- Title: Framework/src/TaskRunner.cxx Pages: 1 -->
<!--zoomable 375 -->
<svg id="main" version="1.1" xmlns="http://www.w3.org/2000/svg" xmlns:xlink="http://www.w3.org/1999/xlink" xml:space="preserve" onload="init(evt)">
<style type="text/css"><![CDATA[
.edge:hover path { stroke: red; }
.edge:hover polygon { stroke: red; fill: red; }
]]></style>
<script type="text/javascript"><![CDATA[
var edges = document.getElementsByTagName('g');
if (edges && edges.length) {
  for (var i=0;i<edges.length;i++) {
    if (edges[i].id.substr(0,4)=='edge') {
      edges[i].setAttribute('class','edge');
    }
  }
}
]]></script>
        <defs>
                <circle id="rim" cx="0" cy="0" r="7"/>
                <circle id="rim2" cx="0" cy="0" r="3.5"/>
                <g id="zoomPlus">
                        <use xlink:href="#rim" fill="#404040">
                                <set attributeName="fill" to="#808080" begin="zoomplus.mouseover" end="zoomplus.mouseout"/>
                        </use>
                        <path d="M-4,0h8M0,-4v8" fill="none" stroke="white" stroke-width="1.5" pointer-events="none"/>
                </g>
                <g id="zoomMin">
                        <use xlink:href="#rim" fill="#404040">
                                <set attributeName="fill" to="#808080" begin="zoomminus.mouseover" end="zoomminus.mouseout"/>
                        </use>
                        <path d="M-4,0h8" fill="none" stroke="white" stroke-width="1.5" pointer-events="none"/>
                </g>
                <g id="dirArrow">
                        <path fill="none" stroke="white" stroke-width="1.5" d="M0,-3.0v7 M-2.5,-0.5L0,-3.0L2.5,-0.5"/>
                </g>
               <g id="resetDef">
                       <use xlink:href="#rim2" fill="#404040">
                               <set attributeName="fill" to="#808080" begin="reset.mouseover" end="reset.mouseout"/>
                       </use>
               </g>
        </defs>

<script type="text/javascript">
var viewWidth = 2387;
var viewHeight = 375;
var sectionId = 'dynsection-0';
</script>
<script xlink:href="svgpan.js"/>
<svg id="graph" class="graph">
<g id="viewport">
<title>Framework/src/TaskRunner.cxx</title>
<!-- Node1 -->
<g id="node1" class="node"><title>Node1</title>
<polygon fill="#bfbfbf" stroke="black" points="1349,-347.5 1349,-366.5 1506,-366.5 1506,-347.5 1349,-347.5"/>
<text text-anchor="middle" x="1427.5" y="-354.5" font-family="Helvetica,sans-Serif" font-size="10.00">Framework/src/TaskRunner.cxx</text>
</g>
<!-- Node2 -->
<g id="node2" class="node"><title>Node2</title>
<g id="a_node2"><a xlink:href="TaskRunner_8h.html" target="_top" xlink:title="QualityControl/TaskRunner.h">
<polygon fill="none" stroke="black" points="376,-286 376,-305 519,-305 519,-286 376,-286"/>
<text text-anchor="middle" x="447.5" y="-293" font-family="Helvetica,sans-Serif" font-size="10.00">QualityControl/TaskRunner.h</text>
</a>
</g>
</g>
<!-- Node1&#45;&gt;Node2 -->
<g id="edge1" class="edge"><title>Node1&#45;&gt;Node2</title>
<path fill="none" stroke="midnightblue" d="M1348.96,-351.231C1166.42,-340.148 715.001,-312.741 529.302,-301.467"/>
<polygon fill="midnightblue" stroke="midnightblue" points="529.252,-297.957 519.058,-300.845 528.827,-304.944 529.252,-297.957"/>
</g>
<!-- Node13 -->
<g id="node13" class="node"><title>Node13</title>
<polygon fill="none" stroke="#bfbfbf" points="1036.5,-112.5 1036.5,-131.5 1088.5,-131.5 1088.5,-112.5 1036.5,-112.5"/>
<text text-anchor="middle" x="1062.5" y="-119.5" font-family="Helvetica,sans-Serif" font-size="10.00">memory</text>
</g>
<!-- Node1&#45;&gt;Node13 -->
<g id="edge32" class="edge"><title>Node1&#45;&gt;Node13</title>
<path fill="none" stroke="midnightblue" d="M1348.86,-351.63C1304.97,-346.406 1250.62,-335.139 1207.5,-311 1142.2,-274.441 1134.27,-250.099 1092.5,-188 1082.65,-173.352 1074.49,-154.95 1069.19,-141.468"/>
<polygon fill="midnightblue" stroke="midnightblue" points="1072.37,-139.994 1065.56,-131.877 1065.82,-142.468 1072.37,-139.994"/>
</g>
<!-- Node21 -->
<g id="node21" class="node"><title>Node21</title>
<polygon fill="none" stroke="#bfbfbf" points="1116.5,-56.5 1116.5,-75.5 1232.5,-75.5 1232.5,-56.5 1116.5,-56.5"/>
<text text-anchor="middle" x="1174.5" y="-63.5" font-family="Helvetica,sans-Serif" font-size="10.00">Common/Exceptions.h</text>
</g>
<!-- Node1&#45;&gt;Node21 -->
<g id="edge33" class="edge"><title>Node1&#45;&gt;Node21</title>
<path fill="none" stroke="midnightblue" d="M1348.94,-351.266C1320.45,-345.448 1290.59,-333.798 1271.5,-311 1230.47,-262.01 1280.99,-227.027 1256.5,-168 1242.04,-133.134 1211.51,-100.746 1192.06,-82.4603"/>
<polygon fill="midnightblue" stroke="midnightblue" points="1194.22,-79.6921 1184.48,-75.5208 1189.49,-84.8551 1194.22,-79.6921"/>
</g>
<!-- Node23 -->
<g id="node23" class="node"><title>Node23</title>
<polygon fill="none" stroke="#bfbfbf" points="1280,-280.5 1280,-310.5 1415,-310.5 1415,-280.5 1280,-280.5"/>
<text text-anchor="start" x="1288" y="-298.5" font-family="Helvetica,sans-Serif" font-size="10.00">Configuration/Configuration</text>
<text text-anchor="middle" x="1347.5" y="-287.5" font-family="Helvetica,sans-Serif" font-size="10.00">Factory.h</text>
</g>
<!-- Node1&#45;&gt;Node23 -->
<g id="edge34" class="edge"><title>Node1&#45;&gt;Node23</title>
<path fill="none" stroke="midnightblue" d="M1416.04,-347.475C1405.3,-339.492 1388.85,-327.254 1374.75,-316.77"/>
<polygon fill="midnightblue" stroke="midnightblue" points="1376.47,-313.682 1366.35,-310.523 1372.29,-319.299 1376.47,-313.682"/>
</g>
<!-- Node24 -->
<g id="node24" class="node"><title>Node24</title>
<polygon fill="none" stroke="#bfbfbf" points="1433,-286 1433,-305 1584,-305 1584,-286 1433,-286"/>
<text text-anchor="middle" x="1508.5" y="-293" font-family="Helvetica,sans-Serif" font-size="10.00">Monitoring/MonitoringFactory.h</text>
</g>
<!-- Node1&#45;&gt;Node24 -->
<g id="edge35" class="edge"><title>Node1&#45;&gt;Node24</title>
<path fill="none" stroke="midnightblue" d="M1439.11,-347.475C1451.98,-338.02 1472.97,-322.596 1488.51,-311.187"/>
<polygon fill="midnightblue" stroke="midnightblue" points="1490.93,-313.75 1496.92,-305.009 1486.78,-308.108 1490.93,-313.75"/>
</g>
<!-- Node25 -->
<g id="node25" class="node"><title>Node25</title>
<polygon fill="none" stroke="#bfbfbf" points="1602.5,-286 1602.5,-305 1740.5,-305 1740.5,-286 1602.5,-286"/>
<text text-anchor="middle" x="1671.5" y="-293" font-family="Helvetica,sans-Serif" font-size="10.00">Framework/DataSampling.h</text>
</g>
<!-- Node1&#45;&gt;Node25 -->
<g id="edge36" class="edge"><title>Node1&#45;&gt;Node25</title>
<path fill="none" stroke="midnightblue" d="M1462.46,-347.475C1505.67,-336.937 1579.29,-318.986 1626.63,-307.441"/>
<polygon fill="midnightblue" stroke="midnightblue" points="1627.72,-310.779 1636.61,-305.009 1626.06,-303.978 1627.72,-310.779"/>
</g>
<!-- Node26 -->
<g id="node26" class="node"><title>Node26</title>
<polygon fill="none" stroke="#bfbfbf" points="1758.5,-286 1758.5,-305 1906.5,-305 1906.5,-286 1758.5,-286"/>
<text text-anchor="middle" x="1832.5" y="-293" font-family="Helvetica,sans-Serif" font-size="10.00">Framework/CallbackService.h</text>
</g>
<!-- Node1&#45;&gt;Node26 -->
<g id="edge37" class="edge"><title>Node1&#45;&gt;Node26</title>
<path fill="none" stroke="midnightblue" d="M1493.28,-347.476C1558.42,-338.876 1660.98,-324.914 1749.5,-311 1757.81,-309.694 1766.57,-308.243 1775.17,-306.778"/>
<polygon fill="midnightblue" stroke="midnightblue" points="1775.88,-310.207 1785.14,-305.06 1774.69,-303.309 1775.88,-310.207"/>
</g>
<!-- Node27 -->
<g id="node27" class="node"><title>Node27</title>
<polygon fill="none" stroke="#bfbfbf" points="1925,-286 1925,-305 2068,-305 2068,-286 1925,-286"/>
<text text-anchor="middle" x="1996.5" y="-293" font-family="Helvetica,sans-Serif" font-size="10.00">Framework/TimesliceIndex.h</text>
</g>
<!-- Node1&#45;&gt;Node27 -->
<g id="edge38" class="edge"><title>Node1&#45;&gt;Node27</title>
<path fill="none" stroke="midnightblue" d="M1506.34,-350.806C1603.01,-343.959 1771.75,-330.459 1915.5,-311 1924.35,-309.803 1933.7,-308.326 1942.79,-306.778"/>
<polygon fill="midnightblue" stroke="midnightblue" points="1943.64,-310.181 1952.89,-305.01 1942.43,-303.286 1943.64,-310.181"/>
</g>
<!-- Node28 -->
<g id="node28" class="node"><title>Node28</title>
<polygon fill="none" stroke="#bfbfbf" points="2086.5,-286 2086.5,-305 2226.5,-305 2226.5,-286 2086.5,-286"/>
<text text-anchor="middle" x="2156.5" y="-293" font-family="Helvetica,sans-Serif" font-size="10.00">Framework/DataSpecUtils.h</text>
</g>
<!-- Node1&#45;&gt;Node28 -->
<g id="edge39" class="edge"><title>Node1&#45;&gt;Node28</title>
<path fill="none" stroke="midnightblue" d="M1506.07,-353.412C1628.55,-348.735 1872.26,-336.857 2077.5,-311 2086.35,-309.886 2095.7,-308.423 2104.76,-306.857"/>
<polygon fill="midnightblue" stroke="midnightblue" points="2105.59,-310.264 2114.82,-305.056 2104.36,-303.373 2105.59,-310.264"/>
</g>
<!-- Node29 -->
<g id="node29" class="node"><title>Node29</title>
<polygon fill="none" stroke="#bfbfbf" points="2244.5,-280.5 2244.5,-310.5 2378.5,-310.5 2378.5,-280.5 2244.5,-280.5"/>
<text text-anchor="start" x="2252.5" y="-298.5" font-family="Helvetica,sans-Serif" font-size="10.00">Framework/DataDescriptor</text>
<text text-anchor="middle" x="2311.5" y="-287.5" font-family="Helvetica,sans-Serif" font-size="10.00">QueryBuilder.h</text>
</g>
<!-- Node1&#45;&gt;Node29 -->
<g id="edge40" class="edge"><title>Node1&#45;&gt;Node29</title>
<path fill="none" stroke="midnightblue" d="M1506.09,-355.085C1649.12,-352.662 1961.58,-343.875 2234.35,-311.024"/>
<polygon fill="midnightblue" stroke="midnightblue" points="2234.94,-314.478 2244.44,-309.795 2234.09,-307.529 2234.94,-314.478"/>
</g>
<!-- Node30 -->
<g id="node30" class="node"><title>Node30</title>
<g id="a_node30"><a xlink:href="QcInfoLogger_8h.html" target="_top" xlink:title="QualityControl/QcInfoLogger.h">
<polygon fill="none" stroke="black" points="902,-286 902,-305 1051,-305 1051,-286 902,-286"/>
<text text-anchor="middle" x="976.5" y="-293" font-family="Helvetica,sans-Serif" font-size="10.00">QualityControl/QcInfoLogger.h</text>
</a>
</g>
</g>
<!-- Node1&#45;&gt;Node30 -->
<g id="edge41" class="edge"><title>Node1&#45;&gt;Node30</title>
<path fill="none" stroke="midnightblue" d="M1351.6,-347.485C1278.08,-339.026 1163.49,-325.286 1064.5,-311 1055.38,-309.684 1045.75,-308.197 1036.34,-306.69"/>
<polygon fill="midnightblue" stroke="midnightblue" points="1036.67,-303.198 1026.24,-305.052 1035.55,-310.108 1036.67,-303.198"/>
</g>
<!-- Node32 -->
<g id="node32" class="node"><title>Node32</title>
<g id="a_node32"><a xlink:href="TaskFactory_8h.html" target="_top" xlink:title="QualityControl/TaskFactory.h">
<polygon fill="none" stroke="black" points="1102,-168.5 1102,-187.5 1247,-187.5 1247,-168.5 1102,-168.5"/>
<text text-anchor="middle" x="1174.5" y="-175.5" font-family="Helvetica,sans-Serif" font-size="10.00">QualityControl/TaskFactory.h</text>
</a>
</g>
</g>
<!-- Node1&#45;&gt;Node32 -->
<g id="edge44" class="edge"><title>Node1&#45;&gt;Node32</title>
<path fill="none" stroke="midnightblue" d="M1349,-352.834C1311.79,-347.743 1268.76,-336.228 1237.5,-311 1201.21,-281.716 1184.57,-226.528 1178.06,-197.664"/>
<polygon fill="midnightblue" stroke="midnightblue" points="1181.45,-196.759 1175.98,-187.683 1174.59,-198.187 1181.45,-196.759"/>
</g>
<!-- Node3 -->
<g id="node3" class="node"><title>Node3</title>
<polygon fill="none" stroke="#bfbfbf" points="344.5,-224.5 344.5,-243.5 436.5,-243.5 436.5,-224.5 344.5,-224.5"/>
<text text-anchor="middle" x="390.5" y="-231.5" font-family="Helvetica,sans-Serif" font-size="10.00">Common/Timer.h</text>
</g>
<!-- Node2&#45;&gt;Node3 -->
<g id="edge2" class="edge"><title>Node2&#45;&gt;Node3</title>
<path fill="none" stroke="midnightblue" d="M439.333,-285.975C430.614,-276.873 416.596,-262.241 405.811,-250.983"/>
<polygon fill="midnightblue" stroke="midnightblue" points="408.097,-248.309 398.652,-243.509 403.042,-253.151 408.097,-248.309"/>
</g>
<!-- Node4 -->
<g id="node4" class="node"><title>Node4</title>
<polygon fill="none" stroke="#bfbfbf" points="454.5,-224.5 454.5,-243.5 552.5,-243.5 552.5,-224.5 454.5,-224.5"/>
<text text-anchor="middle" x="503.5" y="-231.5" font-family="Helvetica,sans-Serif" font-size="10.00">Framework/Task.h</text>
</g>
<!-- Node2&#45;&gt;Node4 -->
<g id="edge3" class="edge"><title>Node2&#45;&gt;Node4</title>
<path fill="none" stroke="midnightblue" d="M455.523,-285.975C464.09,-276.873 477.861,-262.241 488.457,-250.983"/>
<polygon fill="midnightblue" stroke="midnightblue" points="491.186,-253.19 495.491,-243.509 486.089,-248.392 491.186,-253.19"/>
</g>
<!-- Node5 -->
<g id="node5" class="node"><title>Node5</title>
<polygon fill="none" stroke="#bfbfbf" points="570.5,-224.5 570.5,-243.5 734.5,-243.5 734.5,-224.5 570.5,-224.5"/>
<text text-anchor="middle" x="652.5" y="-231.5" font-family="Helvetica,sans-Serif" font-size="10.00">Framework/DataProcessorSpec.h</text>
</g>
<!-- Node2&#45;&gt;Node5 -->
<g id="edge4" class="edge"><title>Node2&#45;&gt;Node5</title>
<path fill="none" stroke="midnightblue" d="M476.872,-285.975C512.797,-275.548 573.732,-257.862 613.544,-246.307"/>
<polygon fill="midnightblue" stroke="midnightblue" points="614.555,-249.658 623.183,-243.509 612.604,-242.935 614.555,-249.658"/>
</g>
<!-- Node6 -->
<g id="node6" class="node"><title>Node6</title>
<polygon fill="none" stroke="#bfbfbf" points="0,-224.5 0,-243.5 153,-243.5 153,-224.5 0,-224.5"/>
<text text-anchor="middle" x="76.5" y="-231.5" font-family="Helvetica,sans-Serif" font-size="10.00">Framework/CompletionPolicy.h</text>
</g>
<!-- Node2&#45;&gt;Node6 -->
<g id="edge5" class="edge"><title>Node2&#45;&gt;Node6</title>
<path fill="none" stroke="midnightblue" d="M394.345,-285.975C327.124,-275.194 211.522,-256.654 139.808,-245.153"/>
<polygon fill="midnightblue" stroke="midnightblue" points="139.985,-241.637 129.557,-243.509 138.876,-248.549 139.985,-241.637"/>
</g>
<!-- Node7 -->
<g id="node7" class="node"><title>Node7</title>
<polygon fill="none" stroke="#bfbfbf" points="171,-224.5 171,-243.5 288,-243.5 288,-224.5 171,-224.5"/>
<text text-anchor="middle" x="229.5" y="-231.5" font-family="Helvetica,sans-Serif" font-size="10.00">Headers/DataHeader.h</text>
</g>
<!-- Node2&#45;&gt;Node7 -->
<g id="edge6" class="edge"><title>Node2&#45;&gt;Node7</title>
<path fill="none" stroke="midnightblue" d="M416.266,-285.975C377.9,-275.504 312.713,-257.712 270.389,-246.16"/>
<polygon fill="midnightblue" stroke="midnightblue" points="271.245,-242.766 260.676,-243.509 269.402,-249.519 271.245,-242.766"/>
</g>
<!-- Node8 -->
<g id="node8" class="node"><title>Node8</title>
<g id="a_node8"><a xlink:href="TaskConfig_8h.html" target="_top" xlink:title="QualityControl/TaskConfig.h">
<polygon fill="none" stroke="black" points="598.5,-112.5 598.5,-131.5 738.5,-131.5 738.5,-112.5 598.5,-112.5"/>
<text text-anchor="middle" x="668.5" y="-119.5" font-family="Helvetica,sans-Serif" font-size="10.00">QualityControl/TaskConfig.h</text>
</a>
</g>
</g>
<!-- Node2&#45;&gt;Node8 -->
<g id="edge7" class="edge"><title>Node2&#45;&gt;Node8</title>
<path fill="none" stroke="midnightblue" d="M400.898,-285.955C377.01,-278.96 349.968,-266.395 335.5,-244 317.17,-215.628 313.272,-193.434 335.5,-168 367.627,-131.239 500.087,-123.312 587.952,-122.228"/>
<polygon fill="midnightblue" stroke="midnightblue" points="588.204,-125.726 598.17,-122.13 588.137,-118.726 588.204,-125.726"/>
</g>
<!-- Node11 -->
<g id="node11" class="node"><title>Node11</title>
<g id="a_node11"><a xlink:href="TaskInterface_8h.html" target="_top" xlink:title="QualityControl/TaskInterface.h">
<polygon fill="none" stroke="black" points="752.5,-224.5 752.5,-243.5 902.5,-243.5 902.5,-224.5 752.5,-224.5"/>
<text text-anchor="middle" x="827.5" y="-231.5" font-family="Helvetica,sans-Serif" font-size="10.00">QualityControl/TaskInterface.h</text>
</a>
</g>
</g>
<!-- Node2&#45;&gt;Node11 -->
<g id="edge10" class="edge"><title>Node2&#45;&gt;Node11</title>
<path fill="none" stroke="midnightblue" d="M501.945,-285.975C570.938,-275.172 689.688,-256.578 763.107,-245.083"/>
<polygon fill="midnightblue" stroke="midnightblue" points="763.818,-248.514 773.156,-243.509 762.735,-241.598 763.818,-248.514"/>
</g>
<!-- Node9 -->
<g id="node9" class="node"><title>Node9</title>
<polygon fill="none" stroke="#bfbfbf" points="619,-0.5 619,-19.5 660,-19.5 660,-0.5 619,-0.5"/>
<text text-anchor="middle" x="639.5" y="-7.5" font-family="Helvetica,sans-Serif" font-size="10.00">string</text>
</g>
<!-- Node8&#45;&gt;Node9 -->
<g id="edge8" class="edge"><title>Node8&#45;&gt;Node9</title>
<path fill="none" stroke="midnightblue" d="M666.224,-112.368C661.523,-94.5366 650.651,-53.2953 644.317,-29.2717"/>
<polygon fill="midnightblue" stroke="midnightblue" points="647.699,-28.3688 641.765,-19.5914 640.93,-30.1533 647.699,-28.3688"/>
</g>
<!-- Node10 -->
<g id="node10" class="node"><title>Node10</title>
<polygon fill="none" stroke="#bfbfbf" points="364,-56.5 364,-75.5 447,-75.5 447,-56.5 364,-56.5"/>
<text text-anchor="middle" x="405.5" y="-63.5" font-family="Helvetica,sans-Serif" font-size="10.00">unordered_map</text>
</g>
<!-- Node8&#45;&gt;Node10 -->
<g id="edge9" class="edge"><title>Node8&#45;&gt;Node10</title>
<path fill="none" stroke="midnightblue" d="M626.827,-112.444C580.755,-102.984 506.504,-87.7384 456.869,-77.5472"/>
<polygon fill="midnightblue" stroke="midnightblue" points="457.478,-74.0993 446.978,-75.5164 456.07,-80.9563 457.478,-74.0993"/>
</g>
<!-- Node11&#45;&gt;Node9 -->
<g id="edge13" class="edge"><title>Node11&#45;&gt;Node9</title>
<path fill="none" stroke="midnightblue" d="M752.402,-224.873C749.396,-224.573 746.42,-224.281 743.5,-224 696.768,-219.499 354.252,-222.583 322.5,-188 281.674,-143.534 308.335,-94.8957 354.5,-56 392.511,-23.9738 542.858,-14.5589 608.532,-11.9445"/>
<polygon fill="midnightblue" stroke="midnightblue" points="608.815,-15.4364 618.678,-11.5683 608.556,-8.44125 608.815,-15.4364"/>
</g>
<!-- Node11&#45;&gt;Node10 -->
<g id="edge14" class="edge"><title>Node11&#45;&gt;Node10</title>
<path fill="none" stroke="midnightblue" d="M752.401,-224.883C749.395,-224.581 746.419,-224.285 743.5,-224 698.206,-219.576 366.233,-221.564 335.5,-188 305.219,-154.929 355.109,-106.567 385.221,-82.2121"/>
<polygon fill="midnightblue" stroke="midnightblue" points="387.76,-84.6681 393.463,-75.7393 383.437,-79.1627 387.76,-84.6681"/>
</g>
<!-- Node12 -->
<g id="node12" class="node"><title>Node12</title>
<polygon fill="none" stroke="#bfbfbf" points="970,-56.5 970,-75.5 1005,-75.5 1005,-56.5 970,-56.5"/>
<text text-anchor="middle" x="987.5" y="-63.5" font-family="Helvetica,sans-Serif" font-size="10.00">map</text>
</g>
<!-- Node11&#45;&gt;Node12 -->
<g id="edge11" class="edge"><title>Node11&#45;&gt;Node12</title>
<path fill="none" stroke="midnightblue" d="M876.366,-224.471C915.043,-216.655 964.621,-203.897 977.5,-188 1001.08,-158.895 996.742,-111.893 991.883,-85.8648"/>
<polygon fill="midnightblue" stroke="midnightblue" points="995.254,-84.885 989.78,-75.8135 988.402,-86.3183 995.254,-84.885"/>
</g>
<!-- Node11&#45;&gt;Node13 -->
<g id="edge12" class="edge"><title>Node11&#45;&gt;Node13</title>
<path fill="none" stroke="midnightblue" d="M878.149,-224.455C924.693,-215.92 989.665,-202.078 1011.5,-188 1029.89,-176.141 1044.48,-155.328 1053.26,-140.448"/>
<polygon fill="midnightblue" stroke="midnightblue" points="1056.34,-142.114 1058.18,-131.679 1050.23,-138.691 1056.34,-142.114"/>
</g>
<!-- Node14 -->
<g id="node14" class="node"><title>Node14</title>
<polygon fill="none" stroke="#bfbfbf" points="345,-168.5 345,-187.5 470,-187.5 470,-168.5 345,-168.5"/>
<text text-anchor="middle" x="407.5" y="-175.5" font-family="Helvetica,sans-Serif" font-size="10.00">Framework/InitContext.h</text>
</g>
<!-- Node11&#45;&gt;Node14 -->
<g id="edge15" class="edge"><title>Node11&#45;&gt;Node14</title>
<path fill="none" stroke="midnightblue" d="M760.95,-224.444C684.578,-214.624 559.72,-198.571 480.671,-188.408"/>
<polygon fill="midnightblue" stroke="midnightblue" points="480.674,-184.879 470.309,-187.075 479.781,-191.822 480.674,-184.879"/>
</g>
<!-- Node15 -->
<g id="node15" class="node"><title>Node15</title>
<polygon fill="none" stroke="#bfbfbf" points="488.5,-168.5 488.5,-187.5 648.5,-187.5 648.5,-168.5 488.5,-168.5"/>
<text text-anchor="middle" x="568.5" y="-175.5" font-family="Helvetica,sans-Serif" font-size="10.00">Framework/ProcessingContext.h</text>
</g>
<!-- Node11&#45;&gt;Node15 -->
<g id="edge16" class="edge"><title>Node11&#45;&gt;Node15</title>
<path fill="none" stroke="midnightblue" d="M786.461,-224.444C741.184,-215.004 668.273,-199.802 619.394,-189.611"/>
<polygon fill="midnightblue" stroke="midnightblue" points="619.851,-186.131 609.347,-187.516 618.422,-192.984 619.851,-186.131"/>
</g>
<!-- Node16 -->
<g id="node16" class="node"><title>Node16</title>
<g id="a_node16"><a xlink:href="Activity_8h.html" target="_top" xlink:title="QualityControl/Activity.h">
<polygon fill="none" stroke="black" points="846,-168.5 846,-187.5 969,-187.5 969,-168.5 846,-168.5"/>
<text text-anchor="middle" x="907.5" y="-175.5" font-family="Helvetica,sans-Serif" font-size="10.00">QualityControl/Activity.h</text>
</a>
</g>
</g>
<!-- Node11&#45;&gt;Node16 -->
<g id="edge17" class="edge"><title>Node11&#45;&gt;Node16</title>
<path fill="none" stroke="midnightblue" d="M840.353,-224.324C852.716,-215.979 871.63,-203.212 886.237,-193.352"/>
<polygon fill="midnightblue" stroke="midnightblue" points="888.348,-196.15 894.679,-187.655 884.432,-190.348 888.348,-196.15"/>
</g>
<!-- Node17 -->
<g id="node17" class="node"><title>Node17</title>
<g id="a_node17"><a xlink:href="ObjectsManager_8h.html" target="_top" xlink:title="QualityControl/ObjectsManager.h">
<polygon fill="none" stroke="black" points="667,-168.5 667,-187.5 828,-187.5 828,-168.5 667,-168.5"/>
<text text-anchor="middle" x="747.5" y="-175.5" font-family="Helvetica,sans-Serif" font-size="10.00">QualityControl/ObjectsManager.h</text>
</a>
</g>
</g>
<!-- Node11&#45;&gt;Node17 -->
<g id="edge18" class="edge"><title>Node11&#45;&gt;Node17</title>
<path fill="none" stroke="midnightblue" d="M814.647,-224.324C802.284,-215.979 783.37,-203.212 768.763,-193.352"/>
<polygon fill="midnightblue" stroke="midnightblue" points="770.568,-190.348 760.321,-187.655 766.652,-196.15 770.568,-190.348"/>
</g>
<!-- Node17&#45;&gt;Node8 -->
<g id="edge29" class="edge"><title>Node17&#45;&gt;Node8</title>
<path fill="none" stroke="midnightblue" d="M734.807,-168.324C722.599,-159.979 703.922,-147.212 689.497,-137.352"/>
<polygon fill="midnightblue" stroke="midnightblue" points="691.392,-134.408 681.161,-131.655 687.442,-140.187 691.392,-134.408"/>
</g>
<!-- Node17&#45;&gt;Node9 -->
<g id="edge30" class="edge"><title>Node17&#45;&gt;Node9</title>
<path fill="none" stroke="midnightblue" d="M692.417,-168.496C652.012,-161.001 602.088,-148.674 589.5,-132 564.522,-98.9147 600.512,-51.5567 623.277,-27.0554"/>
<polygon fill="midnightblue" stroke="midnightblue" points="625.968,-29.3072 630.383,-19.6762 620.926,-24.4516 625.968,-29.3072"/>
</g>
<!-- Node17&#45;&gt;Node13 -->
<g id="edge31" class="edge"><title>Node17&#45;&gt;Node13</title>
<path fill="none" stroke="midnightblue" d="M797.413,-168.444C861.269,-157.497 970.321,-138.802 1026.58,-129.158"/>
<polygon fill="midnightblue" stroke="midnightblue" points="1027.18,-132.606 1036.45,-127.466 1026,-125.706 1027.18,-132.606"/>
</g>
<!-- Node18 -->
<g id="node18" class="node"><title>Node18</title>
<g id="a_node18"><a xlink:href="MonitorObject_8h.html" target="_top" xlink:title="QualityControl/MonitorObject.h">
<polygon fill="none" stroke="black" points="799,-112.5 799,-131.5 950,-131.5 950,-112.5 799,-112.5"/>
<text text-anchor="middle" x="874.5" y="-119.5" font-family="Helvetica,sans-Serif" font-size="10.00">QualityControl/MonitorObject.h</text>
</a>
</g>
</g>
<!-- Node17&#45;&gt;Node18 -->
<g id="edge19" class="edge"><title>Node17&#45;&gt;Node18</title>
<path fill="none" stroke="midnightblue" d="M767.624,-168.444C788.524,-159.557 821.435,-145.563 845.216,-135.451"/>
<polygon fill="midnightblue" stroke="midnightblue" points="846.638,-138.65 854.471,-131.516 843.898,-132.208 846.638,-138.65"/>
</g>
<!-- Node22 -->
<g id="node22" class="node"><title>Node22</title>
<g id="a_node22"><a xlink:href="Quality_8h.html" target="_top" xlink:title="QualityControl/Quality.h">
<polygon fill="none" stroke="black" points="706,-56.5 706,-75.5 827,-75.5 827,-56.5 706,-56.5"/>
<text text-anchor="middle" x="766.5" y="-63.5" font-family="Helvetica,sans-Serif" font-size="10.00">QualityControl/Quality.h</text>
</a>
</g>
</g>
<!-- Node17&#45;&gt;Node22 -->
<g id="edge28" class="edge"><title>Node17&#45;&gt;Node22</title>
<path fill="none" stroke="midnightblue" d="M748.991,-168.368C752.057,-150.617 759.13,-109.666 763.288,-85.5974"/>
<polygon fill="midnightblue" stroke="midnightblue" points="766.763,-86.0413 765.016,-75.5914 759.865,-84.8498 766.763,-86.0413"/>
</g>
<!-- Node18&#45;&gt;Node9 -->
<g id="edge20" class="edge"><title>Node18&#45;&gt;Node9</title>
<path fill="none" stroke="midnightblue" d="M800.441,-112.5C766.86,-106.161 727.765,-95.1363 696.5,-76 676.968,-64.0448 660.47,-43.2507 650.329,-28.4006"/>
<polygon fill="midnightblue" stroke="midnightblue" points="653.013,-26.1106 644.614,-19.653 647.153,-29.9391 653.013,-26.1106"/>
</g>
<!-- Node18&#45;&gt;Node12 -->
<g id="edge21" class="edge"><title>Node18&#45;&gt;Node12</title>
<path fill="none" stroke="midnightblue" d="M892.405,-112.444C910.754,-103.675 939.505,-89.9355 960.594,-79.8579"/>
<polygon fill="midnightblue" stroke="midnightblue" points="962.165,-82.9862 969.679,-75.5164 959.147,-76.6703 962.165,-82.9862"/>
</g>
<!-- Node19 -->
<g id="node19" class="node"><title>Node19</title>
<polygon fill="none" stroke="#bfbfbf" points="821.5,-0.5 821.5,-19.5 877.5,-19.5 877.5,-0.5 821.5,-0.5"/>
<text text-anchor="middle" x="849.5" y="-7.5" font-family="Helvetica,sans-Serif" font-size="10.00">Rtypes.h</text>
</g>
<!-- Node18&#45;&gt;Node19 -->
<g id="edge22" class="edge"><title>Node18&#45;&gt;Node19</title>
<path fill="none" stroke="midnightblue" d="M885.899,-112.336C900.616,-100.032 923.147,-76.6888 912.5,-56 905.423,-42.2475 891.979,-31.7663 879.322,-24.3942"/>
<polygon fill="midnightblue" stroke="midnightblue" points="880.813,-21.2221 870.347,-19.5733 877.501,-27.3888 880.813,-21.2221"/>
</g>
<!-- Node20 -->
<g id="node20" class="node"><title>Node20</title>
<polygon fill="none" stroke="#bfbfbf" points="845,-56.5 845,-75.5 904,-75.5 904,-56.5 845,-56.5"/>
<text text-anchor="middle" x="874.5" y="-63.5" font-family="Helvetica,sans-Serif" font-size="10.00">TObject.h</text>
</g>
<!-- Node18&#45;&gt;Node20 -->
<g id="edge23" class="edge"><title>Node18&#45;&gt;Node20</title>
<path fill="none" stroke="midnightblue" d="M874.5,-112.083C874.5,-105.006 874.5,-94.8611 874.5,-85.9865"/>
<polygon fill="midnightblue" stroke="midnightblue" points="878,-85.751 874.5,-75.7511 871,-85.7511 878,-85.751"/>
</g>
<!-- Node18&#45;&gt;Node21 -->
<g id="edge24" class="edge"><title>Node18&#45;&gt;Node21</title>
<path fill="none" stroke="midnightblue" d="M922.036,-112.444C975.028,-102.905 1060.7,-87.4834 1117.32,-77.293"/>
<polygon fill="midnightblue" stroke="midnightblue" points="1117.96,-80.7327 1127.19,-75.5164 1116.72,-73.8434 1117.96,-80.7327"/>
</g>
<!-- Node18&#45;&gt;Node22 -->
<g id="edge25" class="edge"><title>Node18&#45;&gt;Node22</title>
<path fill="none" stroke="midnightblue" d="M857.148,-112.324C839.828,-103.664 812.985,-90.2424 792.998,-80.249"/>
<polygon fill="midnightblue" stroke="midnightblue" points="794.319,-76.9962 783.809,-75.6545 791.188,-83.2572 794.319,-76.9962"/>
</g>
<!-- Node22&#45;&gt;Node9 -->
<g id="edge27" class="edge"><title>Node22&#45;&gt;Node9</title>
<path fill="none" stroke="midnightblue" d="M746.376,-56.4435C725.476,-47.5566 692.565,-33.5632 668.784,-23.4514"/>
<polygon fill="midnightblue" stroke="midnightblue" points="670.102,-20.2085 659.529,-19.5164 667.362,-26.6504 670.102,-20.2085"/>
</g>
<!-- Node22&#45;&gt;Node19 -->
<g id="edge26" class="edge"><title>Node22&#45;&gt;Node19</title>
<path fill="none" stroke="midnightblue" d="M779.835,-56.324C792.662,-47.979 812.285,-35.2122 827.44,-25.3524"/>
<polygon fill="midnightblue" stroke="midnightblue" points="829.724,-28.0417 836.198,-19.6545 825.907,-22.1742 829.724,-28.0417"/>
</g>
<!-- Node30&#45;&gt;Node11 -->
<g id="edge43" class="edge"><title>Node30&#45;&gt;Node11</title>
<path fill="none" stroke="midnightblue" d="M955.152,-285.975C929.814,-275.857 887.362,-258.905 858.429,-247.351"/>
<polygon fill="midnightblue" stroke="midnightblue" points="859.393,-243.967 848.808,-243.509 856.797,-250.468 859.393,-243.967"/>
</g>
<!-- Node31 -->
<g id="node31" class="node"><title>Node31</title>
<polygon fill="none" stroke="#bfbfbf" points="920.5,-224.5 920.5,-243.5 1050.5,-243.5 1050.5,-224.5 920.5,-224.5"/>
<text text-anchor="middle" x="985.5" y="-231.5" font-family="Helvetica,sans-Serif" font-size="10.00">InfoLogger/InfoLogger.hxx</text>
</g>
<!-- Node30&#45;&gt;Node31 -->
<g id="edge42" class="edge"><title>Node30&#45;&gt;Node31</title>
<path fill="none" stroke="midnightblue" d="M977.789,-285.975C979.059,-277.58 981.041,-264.481 982.677,-253.663"/>
<polygon fill="midnightblue" stroke="midnightblue" points="986.178,-253.92 984.213,-243.509 979.257,-252.873 986.178,-253.92"/>
</g>
<!-- Node32&#45;&gt;Node8 -->
<g id="edge47" class="edge"><title>Node32&#45;&gt;Node8</title>
<path fill="none" stroke="midnightblue" d="M1101.73,-169.234C1008.1,-159.242 845.96,-141.938 748.808,-131.57"/>
<polygon fill="midnightblue" stroke="midnightblue" points="749.059,-128.077 738.744,-130.496 748.316,-135.038 749.059,-128.077"/>
</g>
<!-- Node32&#45;&gt;Node13 -->
<g id="edge45" class="edge"><title>Node32&#45;&gt;Node13</title>
<path fill="none" stroke="midnightblue" d="M1156.51,-168.324C1138.46,-159.625 1110.45,-146.12 1089.7,-136.113"/>
<polygon fill="midnightblue" stroke="midnightblue" points="1090.98,-132.845 1080.45,-131.655 1087.94,-139.15 1090.98,-132.845"/>
</g>
<!-- Node32&#45;&gt;Node21 -->
<g id="edge46" class="edge"><title>Node32&#45;&gt;Node21</title>
<path fill="none" stroke="midnightblue" d="M1174.5,-168.368C1174.5,-150.617 1174.5,-109.666 1174.5,-85.5974"/>
<polygon fill="midnightblue" stroke="midnightblue" points="1178,-85.5914 1174.5,-75.5914 1171,-85.5915 1178,-85.5914"/>
</g>
</g>
</svg>
        <g id="navigator" transform="translate(0 0)" fill="#404254">
                <rect fill="#f2f5e9" fill-opacity="0.5" stroke="#606060" stroke-width=".5" x="0" y="0" width="60" height="60"/>
                <use id="zoomplus" xlink:href="#zoomPlus" x="17" y="9" onmousedown="handleZoom(evt,'in')"/>
                <use id="zoomminus" xlink:href="#zoomMin" x="42" y="9" onmousedown="handleZoom(evt,'out')"/>
                <use id="reset" xlink:href="#resetDef" x="30" y="36" onmousedown="handleReset()"/>
                <g id="arrowUp" xlink:href="#dirArrow" transform="translate(30 24)" onmousedown="handlePan(0,-1)">
                  <use xlink:href="#rim" fill="#404040">
                        <set attributeName="fill" to="#808080" begin="arrowUp.mouseover" end="arrowUp.mouseout"/>
                  </use>
                  <path fill="none" stroke="white" stroke-width="1.5" d="M0,-3.0v7 M-2.5,-0.5L0,-3.0L2.5,-0.5"/>
                </g>
                <g id="arrowRight" xlink:href="#dirArrow" transform="rotate(90) translate(36 -43)" onmousedown="handlePan(1,0)">
                  <use xlink:href="#rim" fill="#404040">
                        <set attributeName="fill" to="#808080" begin="arrowRight.mouseover" end="arrowRight.mouseout"/>
                  </use>
                  <path fill="none" stroke="white" stroke-width="1.5" d="M0,-3.0v7 M-2.5,-0.5L0,-3.0L2.5,-0.5"/>
                </g>
                <g id="arrowDown" xlink:href="#dirArrow" transform="rotate(180) translate(-30 -48)" onmousedown="handlePan(0,1)">
                  <use xlink:href="#rim" fill="#404040">
                        <set attributeName="fill" to="#808080" begin="arrowDown.mouseover" end="arrowDown.mouseout"/>
                  </use>
                  <path fill="none" stroke="white" stroke-width="1.5" d="M0,-3.0v7 M-2.5,-0.5L0,-3.0L2.5,-0.5"/>
                </g>
                <g id="arrowLeft" xlink:href="#dirArrow" transform="rotate(270) translate(-36 17)" onmousedown="handlePan(-1,0)">
                  <use xlink:href="#rim" fill="#404040">
                        <set attributeName="fill" to="#808080" begin="arrowLeft.mouseover" end="arrowLeft.mouseout"/>
                  </use>
                  <path fill="none" stroke="white" stroke-width="1.5" d="M0,-3.0v7 M-2.5,-0.5L0,-3.0L2.5,-0.5"/>
                </g>
        </g>
        <svg viewBox="0 0 15 15" width="100%" height="30px" preserveAspectRatio="xMaxYMin meet">
         <g id="arrow_out" transform="scale(0.3 0.3)">
          <a xlink:href="TaskRunner_8cxx__incl_org.svg" target="_base">
           <rect id="button" ry="5" rx="5" y="6" x="6" height="38" width="38"
                fill="#f2f5e9" fill-opacity="0.5" stroke="#606060" stroke-width="1.0"/>
           <path id="arrow"
             d="M 11.500037,31.436501 C 11.940474,20.09759 22.043105,11.32322 32.158766,21.979434 L 37.068811,17.246167 C 37.068811,17.246167 37.088388,32 37.088388,32 L 22.160133,31.978069 C 22.160133,31.978069 26.997745,27.140456 26.997745,27.140456 C 18.528582,18.264221 13.291696,25.230495 11.500037,31.436501 z"
             style="fill:#404040;"/>
          </a>
         </g>
        </svg>
</svg>
